/* XPM */
static char *_85c248416fe4d38b57f7f442b73af94EdApI1Bs5oQYRXmC[] = {
/* columns rows colors chars-per-pixel */
"32 32 239 2 ",
"   c #2C2A02",
".  c #2B2F06",
"X  c #392C04",
"o  c #37290B",
"O  c #2B3300",
"+  c #293704",
"@  c #373605",
"#  c #342D13",
"$  c #342C1B",
"%  c #3C2515",
"&  c #2D3812",
"*  c #35321F",
"=  c #3F1638",
"-  c #3E2526",
";  c #471E08",
":  c #551D0D",
">  c #482705",
",  c #532604",
"<  c #493300",
"1  c #472716",
"2  c #573B00",
"3  c #612000",
"4  c #451C2F",
"5  c #462529",
"6  c #4F2632",
"7  c #7B3E3A",
"8  c #6B3F35",
"9  c #334200",
"0  c #764B04",
"q  c #7D4B03",
"w  c #7D4A09",
"e  c #7A5502",
"r  c #784B13",
"t  c #795113",
"y  c #7A4B2A",
"u  c #674B3A",
"i  c #7B4837",
"p  c #76523C",
"a  c #677B34",
"s  c #7A3F45",
"d  c #6D4347",
"f  c #6C4B46",
"g  c #6A464D",
"h  c #764444",
"j  c #7C4343",
"k  c #74454D",
"l  c #7B434C",
"z  c #744A4C",
"x  c #7C4A4B",
"c  c #744A45",
"v  c #62554B",
"b  c #6C4952",
"n  c #684751",
"m  c #754652",
"M  c #794551",
"N  c #70465D",
"B  c #754B55",
"V  c #745255",
"C  c #7A6A49",
"Z  c #893F17",
"A  c #8A3F33",
"S  c #844F06",
"D  c #835805",
"F  c #93471D",
"G  c #8D5312",
"H  c #9C6219",
"J  c #9D6614",
"K  c #9F6C00",
"L  c #A26719",
"P  c #A26D00",
"I  c #874526",
"U  c #9A5D29",
"Y  c #834A3B",
"T  c #864637",
"R  c #9D5C3D",
"E  c #9C5936",
"W  c #91432F",
"Q  c #A65D25",
"!  c #A35D3A",
"~  c #9C6425",
"^  c #8F633D",
"/  c #976834",
"(  c #8B642D",
")  c #A36323",
"_  c #A2632B",
"`  c #AA6726",
"'  c #A3623E",
"]  c #A56534",
"[  c #DC7C2F",
"{  c #F17A2A",
"}  c #E87A3C",
"|  c #F87F30",
" . c #814444",
".. c #824848",
"X. c #9D5B4C",
"o. c #995948",
"O. c #9B5A5C",
"+. c #985A54",
"@. c #8A524C",
"#. c #A45B43",
"$. c #A35C4C",
"%. c #A65949",
"&. c #A25C54",
"*. c #A35C5B",
"=. c #A75A56",
"-. c #9C6243",
";. c #976548",
":. c #8C6857",
">. c #9B6555",
",. c #A46143",
"<. c #A3634B",
"1. c #A6684A",
"2. c #BB7A4E",
"3. c #A36155",
"4. c #A86555",
"5. c #AC7A5A",
"6. c #BC745B",
"7. c #B47B5D",
"8. c #BC7B5C",
"9. c #B77758",
"0. c #985D63",
"q. c #A85863",
"w. c #A97766",
"e. c #B87965",
"r. c #AD7B76",
"t. c #BA7971",
"y. c #C3795A",
"u. c #C47A62",
"i. c #C17665",
"p. c #6A9B36",
"a. c #7C9D34",
"s. c #739E3C",
"d. c #799939",
"f. c #6E8D30",
"g. c #6CA52D",
"h. c #6DAB2E",
"j. c #68A224",
"k. c #74A524",
"l. c #73A42D",
"z. c #75A92F",
"x. c #7AA92C",
"c. c #6CA533",
"v. c #66A832",
"b. c #6CAC33",
"n. c #6CAA3A",
"m. c #69A639",
"M. c #74A533",
"N. c #7BA432",
"B. c #73AB34",
"V. c #7BAB35",
"C. c #74A53B",
"Z. c #73AB3A",
"A. c #7BAC3B",
"S. c #79A33D",
"D. c #6DB13A",
"F. c #74B23A",
"G. c #79B139",
"H. c #779C48",
"J. c #7D9252",
"K. c #7BA444",
"L. c #74AD41",
"P. c #77A647",
"I. c #79B345",
"U. c #78A455",
"Y. c #6DB047",
"T. c #7B9F62",
"R. c #79A069",
"E. c #809C35",
"W. c #82A636",
"Q. c #81AC36",
"!. c #DB8628",
"~. c #D78138",
"^. c #ED8826",
"/. c #E78338",
"(. c #E8B423",
"). c #F3B42A",
"_. c #EAAB37",
"`. c #EAB936",
"'. c #F5B33C",
"]. c #F4AF26",
"[. c #ECAC16",
"{. c #EAD41F",
"}. c #ECC829",
"|. c #F3D526",
" X c #FACB36",
".X c #EFD43B",
"XX c #F7D438",
"oX c #EFCF2D",
"OX c #849C4B",
"+X c #889A43",
"@X c #959857",
"#X c #95994D",
"$X c #A6865D",
"%X c #B7835C",
"&X c #85A243",
"*X c #82A34A",
"=X c #89AA49",
"-X c #85A457",
";X c #8CAE4F",
":X c #969262",
">X c #A88568",
",X c #B58367",
"<X c #92A363",
"1X c #D58744",
"2X c #C9895D",
"3X c #D18851",
"4X c #ED8242",
"5X c #DCA85F",
"6X c #E9AD47",
"7X c #EEB543",
"8X c #F8B845",
"9X c #ECAB5A",
"0X c #EAA856",
"qX c #EBB15D",
"wX c #F4B85B",
"eX c #F3A745",
"rX c #D2B06B",
"tX c #DDAF7D",
"yX c #ECAE67",
"uX c #F4AD63",
"iX c #ECB163",
"pX c #E4B06C",
"aX c #F4BE66",
"sX c #E6B371",
"dX c #A2CD59",
"fX c #9DC167",
"gX c #ADC975",
"hX c #EEC748",
"jX c #F6C94B",
"kX c #ECC453",
"lX c #EAC957",
"zX c #F4CE59",
"xX c #EAC565",
"cX c #F4C364",
"vX c #FBC567",
"bX c #F9C46B",
"nX c #F7CB67",
"mX c #F1CD71",
"MX c #B28184",
/* pixels */
"b.b.G.g.z.V.N.M.N.Q.k.k.x.z.L.L.S.M.l.G.g.A.B.c.v.F.F.Z.g.M.M.Z.",
"n.F.c.B.A.l.N.=XN.N.Q.k.k.G.c.c.C.Z.G.h.B.Z.V.g.F.v.v.B.B.V.Z.B.",
"K.K.l.W.W.E.=Xa.f.&XW.M.z.A.I.n.c.B.g.F.Z.C.l.B.B.F.c.B.M.A.M.C.",
"C.Z.M.V.W.E.&Xa gXf.f.;XA.s.s.P.I.n.p.Y.H.P.C.=Xg.h.F.Z.M.M.Z.c.",
"Z.b.V.j.W.W.+XOXa <XJ.J.-XH.U.P.H.P.U.U.R.R.U.p.A.b.c.B.c.F.D.Y.",
"b.Z.S.d.W.#X+X#X@   @ @ O @ @ . + + + & & & + 9 a.&XK.H.K.L.m.v.",
"Z.C.-XOX  X < > rX/ ^ >.o.;.5.%X,X5.;.o.@.;./ rX< @   O <XH.L.Y.",
"*XOX. @ u >X/ pXyXH ' $.#.8.y.y.y.y.e.#.<.! U yXpX( :.>XX @ OXgX",
":XX u p r.e.U 9XyXQ o.&.t.i.y.2.2.3X8.9.%.%.Q uXyX~ -.w.,X$XX @X",
"1 u c c t.y.` 0X0XH ! 4.6.e.9.2.2.2.%X8.=.%.Q 0X9XQ ,.4.9.5.$X> ",
"% c c i t.E ` 9XqXQ ,.$.i.e.u.y.y.8.9.e.%.%.Q wX9X` o.X.e.>X>X> ",
"6 g h ..&.! L 0X0XH ,.$.e.i.i.6.6.6.y.8.$.%.Q 9X0X~ #.X.<.e.w.1 ",
"= N M x o.1.L 9XqX) o.>.$.9.6.y.y.6.7.-.+.o._ qXqXH ,.$.X.w.MX4 ",
"= N m j &.! L aXbX~ 1.o.X.1.6.i.i.6.<.-.+.4.~ bXbXL R $.4.e.r.6 ",
"6 V d x i $.~ bXcXS -.+.4.o.=.%.=.=.o.1.o./ S cXcXH #.o.R e.e.1 ",
"- n f c s Y w cXmX0 y 0.O.*.&.=.q.*.3.o.X.I q vXnXH / <.8.9.,X; ",
"- g z x l Y w mXxX0 Y k s  . . .s  . . .7 i w aXbXH ,.$.$.9.,X> ",
"5 z i i A T q aXzXD r i Y i i i i 8 T T T y q zXwXL Q ' ! ,.w.: ",
"; i I F Z Z G vXkXe D 0 G r S t t t S q w 0 D hXjXP J H ` ] ^ > ",
", 2X3X~.} 4X[ eX`.jXhXkXlXcXzXlXxXmXkXzXzXkX.X`.).'.7X6X6XqXtX> ",
", 3X[ ^.| { { ^.].[. X X X}.|.XX< lX.XoXXX}.}.(.].(.).).).7X5X, ",
"3 2X~.} } } | [ ^.jX_. X XoX|.{.@ lX.X}..X`.7X7X6X8X_.'.7X6XsX, ",
"1 x 7 T W W W I 8 A ! ' ] L }.{.2 hXzXK J ~ E ] ! ! Q ] U U ;.> ",
"6 m M M s  .7  .T s @.O.O./ nXhXlXnXnX~ ;.>.O.*.%.=.&.o.3.;.:.1 ",
"4 g b d z h c z k m l l ..j y y u i i T ..0.O.*.*.X.3.&.X.+.0.5 ",
"$ v g V z x f d z k k k M M m k m k M l k M x j  .7 l O.>.:.:.o ",
"-X+ v n z k m B m z c z m N b b g V z k V f f f k b B n f C O #X",
"S.H.& $ o 1 % 1 # o X X # $ # # # # o % o . @ . # # $ * . + *XC.",
"B.I.s.d.OX+X;XgXP.P.P.K.K.K.K.K.;XfX;X&X=XK.C.K.H.*XH.OX*X*Xm.L.",
"b.b.Q.z.N.g.M.b.b.D.b.b.z.h.B.h.h.h.g.z.j.b.F.B.l.A.B.l.Q.C.I.v.",
"L.Z.c.M.G.L.L.n.n.b.z.B.B.B.Z.b.G.V.V.M.n.n.n.Z.A.g.G.z.dXz.v.F.",
"L.n.Z.Z.c.m.Y.Y.b.b.z.z.M.C.n.B.z.j.A.S.Z.n.n.Z.B.B.l.k.W.V.B.h."
};
