/* XPM */
static char *c5ef6e010e8a4614d847d11df399f873CZJF9dnCR4blCWWP[] = {
/* columns rows colors chars-per-pixel */
"32 32 212 2 ",
"   c #210200",
".  c #2D0600",
"X  c #210B00",
"o  c #2E0E00",
"O  c #330C00",
"+  c #3B0D00",
"@  c #2B1400",
"#  c #341400",
"$  c #3A1400",
"%  c #3D1B00",
"&  c #3D2301",
"*  c #362C02",
"=  c #343B07",
"-  c #393B06",
";  c #353C0C",
":  c #3A3D0A",
">  c #3A3203",
",  c #3D3A12",
"<  c #3B3711",
"1  c #410D00",
"2  c #421600",
"3  c #441C00",
"4  c #491D00",
"5  c #462300",
"6  c #4B2300",
"7  c #442A02",
"8  c #4B2901",
"9  c #4D2F0B",
"0  c #522500",
"q  c #532B01",
"w  c #5D2C00",
"e  c #522B0A",
"r  c #443401",
"t  c #463C06",
"y  c #4B3C04",
"u  c #4C320C",
"i  c #433F0B",
"p  c #4C3D0C",
"a  c #483402",
"s  c #533302",
"d  c #5C3401",
"f  c #5C3A05",
"g  c #5C3609",
"h  c #5A3A0A",
"j  c #512A12",
"k  c #413F16",
"l  c #593714",
"z  c #612E00",
"x  c #643501",
"c  c #6A3603",
"v  c #643B02",
"b  c #6C3C04",
"n  c #643C0B",
"m  c #6C3C0C",
"M  c #62370A",
"N  c #703D04",
"B  c #713E0F",
"V  c #653C11",
"C  c #6C3C13",
"Z  c #663E1A",
"A  c #733E13",
"S  c #633E23",
"D  c #3D410F",
"F  c #32400F",
"G  c #2F4111",
"H  c #3B4113",
"J  c #4E440A",
"K  c #444413",
"L  c #454719",
"P  c #514310",
"I  c #594A16",
"U  c #674000",
"Y  c #6D4303",
"T  c #65430B",
"R  c #6B440D",
"E  c #6D480D",
"W  c #744405",
"Q  c #7B4401",
"!  c #7C4A04",
"~  c #74450B",
"^  c #79440B",
"/  c #74490C",
"(  c #7A4A0C",
")  c #704E07",
"_  c #7C520F",
"`  c #7F580D",
"'  c #664213",
"]  c #6C4414",
"[  c #6D4A14",
"{  c #6B431A",
"}  c #6D4C1A",
"|  c #744513",
" . c #734C14",
".. c #7C4E13",
"X. c #71451C",
"o. c #734D1B",
"O. c #7A4C1B",
"+. c #794416",
"@. c #6F5019",
"#. c #755115",
"$. c #7D5314",
"%. c #7F5917",
"&. c #75521D",
"*. c #7C531B",
"=. c #7F591C",
"-. c #465828",
";. c #684621",
":. c #744D22",
">. c #784D20",
",. c #734927",
"<. c #6F512D",
"1. c #745222",
"2. c #7B5422",
"3. c #7C5923",
"4. c #76532C",
"5. c #7A572C",
"6. c #6D5B37",
"7. c #7F5935",
"8. c #87500F",
"9. c #825A0E",
"0. c #824E14",
"q. c #894F10",
"w. c #814D1B",
"e. c #8B4F1B",
"r. c #825515",
"t. c #8C5515",
"y. c #835A14",
"u. c #83551D",
"i. c #89561D",
"p. c #855D19",
"a. c #83591D",
"s. c #845A1C",
"d. c #8A5D1C",
"f. c #8B5C16",
"g. c #945C19",
"h. c #86611E",
"j. c #8B631D",
"k. c #91621C",
"l. c #9D641F",
"z. c #835522",
"x. c #845B23",
"c. c #8B5D24",
"v. c #83562B",
"b. c #825C2A",
"n. c #8A5D29",
"m. c #89552D",
"M. c #935F22",
"N. c #825736",
"B. c #836123",
"V. c #8A6126",
"C. c #8C6224",
"Z. c #8B622C",
"A. c #8F6A28",
"S. c #946425",
"D. c #966C25",
"F. c #916B2C",
"G. c #9B6C29",
"H. c #996629",
"J. c #8B6234",
"K. c #926936",
"L. c #8F703A",
"P. c #9A7131",
"I. c #A46625",
"U. c #A86727",
"Y. c #A26A26",
"T. c #AC6F2C",
"R. c #AA762A",
"E. c #B37C2F",
"W. c #A16D31",
"Q. c #A67030",
"!. c #A57B36",
"~. c #B17C35",
"^. c #B27D39",
"/. c #8C6C43",
"(. c #9F6E4E",
"). c #937040",
"_. c #997948",
"`. c #997554",
"'. c #A07847",
"]. c #AA794E",
"[. c #AC8236",
"{. c #B7813C",
"}. c #B7843B",
"|. c #BA8541",
" X c #B38F5B",
".X c #B9925C",
"XX c #BC9268",
"oX c #C48D43",
"OX c #C78742",
"+X c #CC964D",
"@X c #CD9848",
"#X c #C59B49",
"$X c #D1954F",
"%X c #D5AB5F",
"&X c #CDA56A",
"*X c #D2AA62",
"=X c #DFB261",
"-X c #D3AB70",
";X c #E1BB74",
":X c #EBC379",
">X c #F0C67E",
",X c #E3C48C",
"<X c #E6CA8B",
"1X c #F3CA87",
"2X c #FCD58E",
"3X c #ECCE96",
"4X c #FFDA92",
"5X c #FFDF99",
"6X c #FADDA1",
"7X c #FFDFAF",
"8X c #FFE6A3",
"9X c #FFF5BC",
/* pixels */
"y.y.s.c.c.z.K.x.*.n.*.$.a.C.%.V.#.E @. .&.R x.U E [ T U @.[ } [ ",
"d.f.r.$.r.$.C.z.a.Z.$.*.$.$.$.a./ E #.[  .[ &.[ T #.[ [ T P h ] ",
"C.x.r.$.y._ C.s...c...C.s.$.s.s.E &.2.2.o.o.&.#.&.3.[ &.o.:.{ :.",
"=.*.y.y.j.y.j.r.$.S.$.j.../ $.s.] [ h T } ] 3.' [ &.[ *.T ' h ' ",
"$.$.a.s.C.s.y.` y.k.9.C.x.z.*.x.] [ &.} } ' 1.' o.&.E &.] R n ' ",
"s.s.a.s.C.y.` ` 9.j.p.s...| 2.Z.&.&.3.} 1.&.3.&.[ T v E o.o.] n ",
"x.s.$._ p.$.$.$.$.*.#.a.#.R 4.d 8 [ @.@.&.' [ @.E [ #.#.E R [ E ",
"=.$.%.%.j.p.*.=.2.b.3.o.8 5 ).L.L._.& 7 } } 3.@.&.#.[ / R  . .| ",
"z.| i._ h.p.y.#.4.N.j $ % h 3X,X,X3Xs 7 % s 1.] [ } o.&.f n  .[ ",
">.z.$.s.A.y.F.J.7.j O # # s 9X8X6X9Xh % & 3 7 ;.1.5.:.b.T d o.o.",
"m.2.Z.h.y.B.2.6 + O $ % 7 @.8X<X,X7X' 5 5 4 0 3 q 8 V } { } V { ",
"v.>.=.*.F.&.3 + $ 2 5 6 6 5 8 d d 6 6 4 4 8 2 0 3 3 6 g Z { { ' ",
"&.b.8 O O O $ 4 6 4 4 4 $ q 6 6 5 6 0 4 4 4 4 4 6 6 3 2 4 q n X.",
"&.q 5 Z Z ,.:.]  . ./ ! r.$.i.i.i.s.i...+.w.+.>.C A O.| m ] x ] ",
"% % % 5 0 V w O...S.k.! R.^.|.q.8.{.~.Q.0.( H.N W u.| S.s.R c 6 ",
"7 l 8 ;.4.4.,.J.C.d.d.W g.H.P.0.W G.H.M.r.M n.n.n.x.| x.a.n.x.3.",
"u j 7 l u 5 8 5 ' s 6 q 8 M q 5 5 4 V 8 8 6 7 u 7 & 0 V 0 4 9 & ",
"# &   `.4.@ $ # /.5.# O # _.5.$ # # `.+ # $ X 6.@ # + (.N.+ # X ",
"j S . % 5 5 % e 9 6 8 6 6 6 6 4 3 q 4 6 6 6 7 5 5 3 0 0 4 q 7 % ",
"l <.. 6 0 5 e { X. .X.{ C X.,.C ] ] C { C {  .E  .m +.C A V ' s ",
"N.XX4 >.&.*.O.n.d.s.x.z.*.a.z.z.O.O.O.b.2...W 8.N 8.( w.O.>.v.d ",
"2.'.O w f U ( 2X1X:X1XM.W c b x x n M q 0 d [.R.E.c N x x d d x ",
"&.L.$ [ ) ) D.5X2X4X6XP._ / ^ | ] { [  XB.Y %X#X=X! y.$.b. .O.n ",
"J. X% #.%.j.h.4X1X:X2Xs.Y v v b n w n f d v ;X*X:XW f x d v m q ",
"O.K.2 A b / b r.j.f.r.^ ^ ^ w.A | ~ ^ N ^ $.&X.X-Xv b ( / ( ( w ",
"m.].1 A ..0.^ r.( ! 0.i.w.u.z.w.| 0...( ..4 q 4 6 d a.~ W q.0.x ",
"A m.1 z z w b 0 x w w x z x z z w w z z x 2 4 4 3 q  .*.i.0.w.| ",
"O.z.A w.0.M.c.i.r.8.i.N i.0.b c c m N N w N B m ] m w W N c c c ",
"q.t.Q I.E.oXI.+X@X@X+Xg.oXE.G.g.^ H.M.t.Q T.I.U.g.Y.W g.H.S.0.e.",
"^ $.^ S.S.G.r.!.[.[.!.v D.j.p.) v a.s.c.( |.OXOX$X}.` h.h.B.z.z.",
"a r p p y r p p y J P > P J J J t J t P 7 } E b b T y K - - i * ",
"> * , , i K < k D D : L = = F D ; H = ; L I s v f I K ; -.G H K "
};
