/* XPM */
static char *_f85aa8072254a79b420d885c5686292snkbJsJeNzvLEtFP[] = {
/* columns rows colors chars-per-pixel */
"32 32 245 2 ",
"   c #7C7616",
".  c #797B18",
"X  c #7C7918",
"o  c #7C7E1B",
"O  c #827E1D",
"+  c #8A791D",
"@  c #8C7D20",
"#  c #907F23",
"$  c #6F9929",
"%  c #779B2D",
"&  c #709F2D",
"*  c #759F2F",
"=  c #7D982D",
"-  c #7A9E30",
";  c #67A02B",
":  c #64A42C",
">  c #69A029",
",  c #6BA22B",
"<  c #6DA32B",
"1  c #68A12C",
"2  c #6AA12C",
"3  c #6AA32E",
"4  c #6EA02D",
"5  c #6FA02D",
"6  c #6CA32C",
"7  c #6BA52D",
"8  c #6BA42F",
"9  c #6AA52F",
"0  c #6DA42C",
"q  c #6DA42D",
"w  c #6EA42C",
"e  c #6EA52D",
"r  c #6EA52E",
"t  c #6CA62E",
"y  c #6DA72F",
"u  c #6FA62E",
"i  c #6FA62F",
"p  c #62A82E",
"a  c #71A22F",
"s  c #74A02F",
"d  c #70A62E",
"f  c #70A72F",
"g  c #71A72F",
"h  c #6AA730",
"j  c #6CA530",
"k  c #6DA631",
"l  c #6CA731",
"z  c #6CA733",
"x  c #6EA732",
"c  c #65A930",
"v  c #67A830",
"b  c #65AB31",
"n  c #67AB32",
"m  c #63AD32",
"M  c #6BAB33",
"N  c #6EA830",
"B  c #6FA931",
"V  c #6DA832",
"C  c #6CA932",
"Z  c #6FA833",
"A  c #6EA933",
"S  c #6DAA33",
"D  c #68AC33",
"F  c #6DA834",
"G  c #6EA935",
"H  c #6FAA34",
"J  c #6EAB34",
"K  c #6FAA36",
"L  c #69AD34",
"P  c #6BAC34",
"I  c #68AF35",
"U  c #6BAF36",
"Y  c #6CAC34",
"T  c #6DAD35",
"R  c #6FAC35",
"E  c #6DAE36",
"W  c #6EAE36",
"Q  c #6EAF37",
"!  c #6FAF37",
"~  c #72A330",
"^  c #77A131",
"/  c #74A331",
"(  c #77A332",
")  c #73A431",
"_  c #70A730",
"`  c #73A532",
"'  c #71A632",
"]  c #70A732",
"[  c #72A733",
"{  c #75A432",
"}  c #74A532",
"|  c #76A533",
" . c #74A633",
".. c #75A633",
"X. c #75A734",
"o. c #77A634",
"O. c #76A734",
"+. c #78A433",
"@. c #7DA334",
"#. c #7EA234",
"$. c #7FA335",
"%. c #79A534",
"&. c #7AA434",
"*. c #78A735",
"=. c #7BA736",
"-. c #7EA435",
";. c #7DA737",
":. c #7FA737",
">. c #71A830",
",. c #71A831",
"<. c #72A931",
"1. c #71A833",
"2. c #72A932",
"3. c #70AA32",
"4. c #71AB33",
"5. c #73AA32",
"6. c #73AA33",
"7. c #74AB33",
"8. c #75AB33",
"9. c #70A934",
"0. c #73A834",
"q. c #72A934",
"w. c #71AA35",
"e. c #70AB35",
"r. c #73AA35",
"t. c #70AB37",
"y. c #72AB36",
"u. c #74A935",
"i. c #76A835",
"p. c #77A835",
"a. c #75AA34",
"s. c #74AB34",
"d. c #77A936",
"f. c #75AA36",
"g. c #74AB36",
"h. c #76AB37",
"j. c #72AC34",
"k. c #73AD35",
"l. c #71AC36",
"z. c #70AD36",
"x. c #73AC37",
"c. c #72AD37",
"v. c #75AC34",
"b. c #75AC35",
"n. c #76AD35",
"m. c #75AC37",
"M. c #76AD36",
"N. c #74AE36",
"B. c #75AF37",
"V. c #77AE37",
"C. c #79A836",
"Z. c #78A936",
"A. c #78AA37",
"S. c #78AE36",
"D. c #71AC38",
"F. c #72AD39",
"G. c #73AE38",
"H. c #72AF38",
"J. c #73AE3A",
"K. c #74AD38",
"L. c #77AC38",
"P. c #76AD38",
"I. c #75AE39",
"U. c #74AF39",
"Y. c #74AF3B",
"T. c #76AF3A",
"R. c #79AB38",
"E. c #7BAA38",
"W. c #7AAB38",
"Q. c #78AD39",
"!. c #7AAC39",
"~. c #7BAC39",
"^. c #78AF38",
"/. c #79AE3A",
"(. c #78AF3A",
"). c #7AAF3B",
"_. c #7DAC3A",
"`. c #7EAD3B",
"'. c #7DAF3C",
"]. c #7FAE3C",
"[. c #6AB036",
"{. c #6BB238",
"}. c #6CB238",
"|. c #6EB239",
" X c #6CB63B",
".X c #70B038",
"XX c #71B139",
"oX c #73B039",
"OX c #76B038",
"+X c #77B139",
"@X c #77B03B",
"#X c #75B03C",
"$X c #76B13D",
"%X c #77B23E",
"&X c #79B038",
"*X c #79B039",
"=X c #78B23A",
"-X c #79B33B",
";X c #7BB23B",
":X c #78B13C",
">X c #7BB03C",
",X c #7AB13C",
"<X c #79B23D",
"1X c #79B43E",
"2X c #7DB43D",
"3X c #74B83F",
"4X c #7CB540",
"5X c #7EB742",
"6X c #78B840",
"7X c #7EBB44",
"8X c #8E8828",
"9X c #948528",
"0X c #86972F",
"qX c #8E932F",
"wX c #82992F",
"eX c #879C33",
"rX c #919632",
"tX c #949432",
"yX c #979433",
"uX c #999031",
"iX c #909B35",
"pX c #969C38",
"aX c #9B9B39",
"sX c #81A134",
"dX c #83A034",
"fX c #86A035",
"gX c #85A236",
"hX c #82A638",
"jX c #8EA33A",
"kX c #8BA63B",
"lX c #80A838",
"zX c #86AC3D",
"xX c #91A83E",
"cX c #82B942",
"vX c #83BA43",
"bX c #D7BC63",
"nX c #D9B962",
"mX c #94CB53",
"MX c #9CD35B",
"NX c #9AD35E",
"BX c #A5DB63",
"VX c #A5DC64",
"CX c #A9DF67",
"ZX c #AAE16A",
"AX c #D4D06F",
/* pixels */
"L.u.W.} } /.XXb |.P J C.;.( z.Y z.z.9.9.F L.G.[ k G.L.9.J 9.9.9.",
"1.u.} u.'.5 O.'.* ;.,X[ *.;.Z Y 9.9.L.L.L.9.J F G.x.J [ 9.9.G.L.",
"Y 1X2 ,XL.u.eXqX# yX} Y 9.k L.Y J G.J 9.9.[ F x.L.] F z.x.9.9.F ",
"Y J 9.1.Y 5 eX8XnX+ & 3XJ 9.Y G.J L.k 9.h L.k x.F F 9.L.[ J 9.[ ",
"P J L.z.z.9.#.eX. pX&.Z ;.} z.D h 9.9.9.G.L.J J J x.9.] k 9.L.G.",
"P ,X;.% ;.`./ zXxX= `.L.s /.z.I D.[ G.k 9.F L.[ 9.x.[ F G.G.F k ",
"P } tX9XrXwX;.5 5 O.*./.} Z |.m XXk G.4Xk k 9.G.[ G.J 9.,X9.j ,X",
"Y #.+ bX. kX*.G.L.b.} } /.Y b |.Y 9.L.NXJ ).j x.J L.F J L.h L.NX",
"/.sXuX8X- k L.9.u.;.z.L.9.C.} C.u.x.x.9.x.9.9.9.x.[ 9.9.x.x.9.9.",
"C.#.iX0Xz.P XX1.C.] J M C.u.C.u.9.9.9.9.9.9.x.x.9.K x.9.9.9.9.x.",
"9.C.hX#.u.|.Y Z u.1.9.Z b.Z z.M z.9.9.x.9.x.9.9.x.x.9.9.9.9.9.x.",
"9.9.u.9.9.z.G.z.9.$XG.XXZ C.& @.L.9.9.x.9.9.x.9.9.9.9.x.x.x.9.9.",
"9.z.z.9.] u.u.u.9.h p D ! *.= uX#.9.9.9.9.x.9.9.9.9.9.9.9.9.9.x.",
"9.z.Y G.0.C.u.b.Y 6XZ 7X: ( AX  hX9.G.9.9.x.9.x.9.G.9.L.9.x.9.9.",
"9.z.Y oX1.L.} u.|.p a ( `.} gXsXC.9.9.9.9.9.x.9.x.9.9.9.9.9.x.9.",
"L.G.k z.M z.O.9.P |.u.lX~ u.C.C.9.9.L.9.x.9.9.9.x.9.z.u.9.z.9.9.",
"J L.J 9.L.k Y.NXz.z.u.C.u.u.u.u.b.a OX1.1.b.u z.L.J 0.e 2Xu >.n.",
"F G.[ 9.$X9.j ,X9.9.9.9.z.9.z.9.b.BX>.VXb.y $X1.k oX1.oXa <.ZXe ",
"9.L.9.[ z.L.k k 9.z.u.z.9.9.9.z.a >.b.b.1.y F F ,XJ 9.u n.d >.k.",
"9.9.9.k J 9.G.L.u.9.9.9.z.u.x.9.-Xe b.> L.oXL.G.2 L.9.1X< k.ZXd ",
"9.F 9.L.F F 9.J 9.u.9.G.9.x.9.9.>.=Xk oX9.k Y.z Y.h x.k j.J >.j.",
"L.J J 9.x.9.9.[ z.9.9.9.9.x.9.x.u >.L.9.L.9.K Y.K F x.J b.L.u S.",
"G.x.[ J [ x.G.L.9.9.9.x.9.9.x.9.k.+X7 z.F K G.D.K G.J G.Z Z b.Z ",
"F G.L.9.J [ J 9.x.x.9.9.x.9.9.9.j.y L.Z J G.z K K Y.F L.z.Z j.j.",
"[ J 9.9.9.x.L.9.x.9.9.9.x.9.9.x.b.k L.[ Y.z K D.Y.K F Y.[ x.Z z.",
"[ 9.x.x.9.F k k 9.9.x.9.x.9.9.x.Z h J F F K Y.K K K Y.F x.x.b.u ",
"G.x.j k L.G.x.,X9.x.9.9.9.9.9.9.Z cXJ [ Y.9.F x.F.K k F k Z 1.b.",
"k x.9.x.$Xk 1 9.9.9.G.9.9.x.x.9.e b.2 x.k J ,XJ F.z x.x.1Xy j.b.",
"J L.9.h F [ 5XNX9.G.9.L.9.9.1.j.2XmX+Xn.-Xj.7 9.Z OXJ B 1.S.1.0.",
"F x.L.L.G.k h G.9.u.9.9.z.9.z.1.1.k.>.0.y 1.oXb.Z j.B B +X0.g k.",
"L.9.k F L.).L.F 9.z.9.9.u.9.j.j.g n.k.a S.1.J L.z.> zXk.MXd S.g ",
"9.9.x.J h 9.9.9.9.u.z.u.z.9.1.j.n.e n.8.0.] z.9.9.oXe d 8.+Xd n."
};
