/* XPM */
static char *akgfp_c0bsf[] = {
/* columns rows colors chars-per-pixel */
"32 32 214 2 ",
"   c #020202",
".  c #0C0300",
"X  c #000B00",
"o  c #080A00",
"O  c #05040A",
"+  c #130100",
"@  c #1C0000",
"#  c #001100",
"$  c #240000",
"%  c #2B0000",
"&  c #350000",
"*  c #3A0000",
"=  c #3C0F0A",
"-  c #391107",
";  c #4B0703",
":  c #520301",
">  c #580C06",
",  c #481505",
"<  c #551506",
"1  c #4C1815",
"2  c #531918",
"3  c #630B01",
"4  c #650709",
"5  c #720301",
"6  c #7B0001",
"7  c #631603",
"8  c #620C17",
"9  c #61101F",
"0  c #790A10",
"q  c #7A2914",
"w  c #7D1820",
"e  c #7E2628",
"r  c #783127",
"t  c #773332",
"y  c #624C3E",
"u  c #4B4E47",
"i  c #5F4D4D",
"p  c #4B5944",
"a  c #52534D",
"s  c #5B574C",
"d  c #4B4F52",
"f  c #584D55",
"g  c #4D5355",
"h  c #535453",
"j  c #5C5553",
"k  c #5A5459",
"l  c #545C5A",
"z  c #5B5858",
"x  c #625248",
"c  c #624955",
"v  c #694E56",
"b  c #645252",
"n  c #685159",
"m  c #634A46",
"M  c #5B654E",
"N  c #5D6065",
"B  c #6F7D7E",
"V  c #7D7D7A",
"C  c #777A73",
"Z  c #840000",
"A  c #941C1B",
"S  c #9B131D",
"D  c #BD0A16",
"F  c #A71417",
"G  c #B3141B",
"H  c #B71415",
"J  c #B90D09",
"K  c #9C2112",
"L  c #961922",
"P  c #AD1B26",
"I  c #8B2321",
"U  c #8C2830",
"Y  c #922B2C",
"T  c #C2050C",
"R  c #C40A12",
"E  c #D20711",
"W  c #827C7B",
"Q  c #887C74",
"!  c #96767B",
"~  c #6C871A",
"^  c #798A1A",
"/  c #798A21",
"(  c #6D9F2E",
")  c #7A9B2B",
"_  c #7B9527",
"`  c #6E9F34",
"'  c #6F9A3A",
"]  c #6F933B",
"[  c #739B34",
"{  c #7C9932",
"}  c #7B9D3E",
"|  c #5FA32A",
" . c #66A42D",
".. c #6BA52C",
"X. c #6DAA2C",
"o. c #67A526",
"O. c #72A927",
"+. c #72A62D",
"@. c #7BA42E",
"#. c #72AB2C",
"$. c #79AC2E",
"%. c #65A533",
"&. c #6CA533",
"*. c #6CAB34",
"=. c #6DA53D",
"-. c #6CAB3C",
";. c #67AE36",
":. c #74A534",
">. c #7AA434",
",. c #74AA34",
"<. c #7AAB34",
"1. c #74A43A",
"2. c #7BA33C",
"3. c #74AB3C",
"4. c #7AAA3B",
"5. c #6CB232",
"6. c #6DB13B",
"7. c #67B136",
"8. c #74B133",
"9. c #74B23B",
"0. c #7BB23A",
"q. c #7BB738",
"w. c #799644",
"e. c #719D43",
"r. c #789B49",
"t. c #7E9B54",
"y. c #7C9B5C",
"u. c #759953",
"i. c #6DAC43",
"p. c #6EA446",
"a. c #74A443",
"s. c #7CA445",
"d. c #73AB42",
"f. c #7BAC42",
"g. c #7AA44B",
"h. c #76A94D",
"j. c #7CAB4B",
"k. c #73A24D",
"l. c #75B341",
"z. c #79B241",
"x. c #75A353",
"c. c #7CA354",
"v. c #7DA757",
"b. c #78B452",
"n. c #7EA064",
"m. c #85972D",
"M. c #879835",
"N. c #81A02B",
"B. c #83A334",
"V. c #82A935",
"C. c #83AB3B",
"Z. c #89A337",
"A. c #84B73E",
"S. c #88994A",
"D. c #929A44",
"F. c #819E5A",
"G. c #879857",
"H. c #83A145",
"J. c #81AA44",
"K. c #83A34C",
"L. c #81AC4A",
"P. c #8FA14D",
"I. c #87B646",
"U. c #83A253",
"Y. c #81A45A",
"T. c #87A75B",
"R. c #90A556",
"E. c #819961",
"W. c #879866",
"Q. c #858577",
"!. c #91827B",
"~. c #9CD55D",
"^. c #AAD85F",
"/. c #BAC55D",
"(. c #B6CE60",
"). c #A3C976",
"_. c #A5E165",
"`. c #7D7D85",
"'. c #847D83",
"]. c #828483",
"[. c #85898C",
"{. c #93838E",
"}. c #BC9C91",
"|. c #9BAA9A",
" X c #9DA498",
".X c #A3A799",
"XX c #A4B29B",
"oX c #9DA1A4",
"OX c #A3A6A2",
"+X c #ABA5A6",
"@X c #A4AAA3",
"#X c #ABA4AA",
"$X c #A5A9A8",
"%X c #ABABA8",
"&X c #A5B2AD",
"*X c #ACB5B2",
"=X c #BFC6B9",
"-X c #C2C9BD",
";X c #D2C7BC",
":X c #C6D0B7",
">X c #C9BFC0",
",X c #CAC7CB",
"<X c #CCCACD",
"1X c #C4C8C6",
"2X c #C5D0CC",
"3X c #D1C8CC",
"4X c #EECCC0",
"5X c #FBDFD1",
"6X c #F1E8EE",
"7X c #ECF2E9",
"8X c #F3F5E9",
"9X c #ECEBF0",
"0X c #F6F2F6",
"qX c #E8EEEA",
/* pixels */
"4.:.<...1.J.J.1.5.8.+.>.H.s.:.d.v.n.y.Y.e.3.z. .X.<.<.>.>.:.3.d.",
":.<.+.:.f.[ 2.J.:.o.I.>.2.L.[ H.. + . X K.1.*.*.8.,.:.:.:.<.3.3.",
"*.z...0.<.>.2.{ / Z.) 4.d.' R.@ 5 K q @ D.>.&.*.,.*.=.3.<.,.:.+.",
"-.*.:.@.<.+.C.~ /./ { 2.K.G.@ 3 J R A & M.<.,.*.*.*.3.3.*.*.+.#.",
"-.*.V.B.>.>.>.@.^ Z.1.K.+ & 6 H E T A % D.$.X.X.3.3.3.*.*.*.8.#.",
"*.f.B.) B.C.+.C.Z.m.P.. < 4 S G D F U $ S.:.8.X.<.4.,.*.-.6.X.o.",
"1.:.M._ N.) 4.` [ D.$ < > : 8 8 4 & @   w.3.,.,.#.$.,.3.z.*...9.",
"4.>.~ (.~ V.1.g.U.. ; > < $ @ @ @ . .   F.g.a.3.#.$.,.:.3.&.9.~.",
"C.B.m.m.) >.f.g.G.+ < > @ . W +X$X1XqX-XX X Y.e.<.#.X.,.3.1.4.<.",
">.B.m._ C.2.L.w.. - 2 $ i V ].V B &X*X1X-X:XX c.3.,.X...z.3.:.4.",
"@.C.>.4.3.=.c.o , 1 @ c {.'.V Q.O     O     =XX a.&.9.*.*.,.<.>.",
"+...<.,.6.d.r.X , % v f k k j     #X<X,X0X9XO   c.f.&.6.*.X.:.<.",
"9.9.*.9.| -.j.X   j f z j     `.'.+XOX X  oX<X1XX r.d.*.*.9.,.+.",
"..*.*.*.,.3.1.Y.X l h h   a [.`.#X#Xo @XX OX  OXX Y.` 8.*.*.,.,.",
",.0.3.9.<.:.} t.X p g N   u W #X  #X  @X  .X  @XX F.1.0...,.4.:.",
"4.:.&.,.:.4.2.U.X p l d   k W +X  %X  OXX  X  .XX F.2.,.<.<.:.<.",
":.4.,...0.:.4.).X l a a o a V OX  %X  +X  |.O .XX c.d. .C.>.@.V.",
"<.<.,.,.<...*.v.X g z h   h ].@X  @X  +X  &X  %XX v.=.l.4.>.^.@.",
"3.3.*.*.:.8.X.p.X l h h O h W W `.`.  +Xo .X   X# u.=.;.*. .q.+.",
"3.3.%.*.,.,.*.h.  j n c v + b n n c v m y x b s X v.i.7. .5._.+.",
"..9.6.-.%.:.L.S.+ $ $ * * * $ @ & * * * % $ @ + G.' 9.*.5.5.X.+.",
"0...%.-.d.j.] o , 4 4 L P L % 1 e Y w e r , , . G.s.d.*.-.=.3.4.",
"<.,.*.*.%.h.T.+ : 6 G R R G & = > 4 8 9 ; $ @ Q.G.F.r.T.x.x.v.e.",
"..0.<.,.-.=.U.. 7 6 R E T F % @ 1 % % % * t +   X X X X X # # E.",
"3.( <.<.X.*.h.X , 6 D R F 3 @ Q . !.Q $ 5 I }.XX.X.X@X|.|.XX.X  ",
"&.f.4.:.,. .d.w.@ > Z P 4 $ x V X C Q.@ 5 A 4X=X<X<X1X,X2X-X;X;X",
"3.3.` 1.9.l.*.I.S.@ 7 : $ 3X,X<X  >X3X$ 0 I 5X8X8X6X6X0X9X7X7X  ",
"*.*.4.f.-.-.o.+.1.S.+ + s h g ].a j f ! & r . X X   o   X X X W.",
"X.9.1.=.i.-.A.^.3.a.G.X p u M   X X a j + . u.x.k.h.k.x.g.g.j.=.",
"X.8.&.3.b.=.o.O. .d.h.u.X M X E.y.y.X p X t.h.d.*.*.*.&.,.,.X.9.",
",.:.,.<.=.3.$.O.3.d.a.r.# # r.s.s.U.# # r.j.a.3.,.X.q.8.~.+.0.%.",
"<.,.+.<.&.3.O.#.3.=.a.a.c.K.:.<.4.' Y.c.s.:.4.,.<.$.X.o.<.<.&.3."
};
