/* XPM */
static char *ay9nc_ji828[] = {
/* columns rows colors chars-per-pixel */
"32 32 235 2 ",
"   c #030201",
".  c #0B0100",
"X  c #03010A",
"o  c #0A0703",
"O  c #140100",
"+  c #1C0000",
"@  c #050912",
"#  c #230000",
"$  c #2B0000",
"%  c #260C00",
"&  c #320000",
"*  c #3B0000",
"=  c #310C00",
"-  c #3A0B00",
";  c #331401",
":  c #3B1400",
">  c #351D00",
",  c #3C1A01",
"<  c #341A09",
"1  c #2C1702",
"2  c #3A2603",
"3  c #363506",
"4  c #362713",
"5  c #3D3A17",
"6  c #353723",
"7  c #430000",
"8  c #4B0000",
"9  c #480C03",
"0  c #550B06",
"q  c #431502",
"w  c #441D01",
"e  c #4A170A",
"r  c #571806",
"t  c #561712",
"y  c #630B01",
"u  c #680506",
"i  c #720101",
"p  c #790000",
"a  c #760008",
"s  c #650E0D",
"d  c #442301",
"f  c #4C2502",
"g  c #4A250C",
"h  c #4C2C0D",
"j  c #452908",
"k  c #532704",
"l  c #592909",
"z  c #443A02",
"x  c #4B3904",
"c  c #493707",
"v  c #5D3501",
"b  c #5A340A",
"n  c #583707",
"m  c #452817",
"M  c #493411",
"N  c #573717",
"B  c #502C12",
"V  c #663604",
"C  c #613B03",
"Z  c #643C0C",
"A  c #673807",
"S  c #753D09",
"D  c #6B3B13",
"F  c #643A16",
"G  c #763D18",
"H  c #662D16",
"J  c #5D3D24",
"K  c #673E27",
"L  c #454307",
"P  c #584307",
"I  c #584515",
"U  c #424113",
"Y  c #6B440E",
"T  c #63480B",
"R  c #72430D",
"E  c #74490B",
"W  c #79460D",
"Q  c #68520F",
"!  c #644214",
"~  c #6C4414",
"^  c #6B4A13",
"/  c #64461B",
"(  c #6A451C",
")  c #634A1C",
"_  c #6C4C1D",
"`  c #664914",
"'  c #724514",
"]  c #794514",
"[  c #734C15",
"{  c #7B4C14",
"}  c #74441C",
"|  c #744C1A",
" . c #7A4E1B",
".. c #7A421D",
"X. c #6B5019",
"o. c #7C5414",
"O. c #7C5916",
"+. c #73531C",
"@. c #7C521B",
"#. c #7C5B1D",
"$. c #755618",
"%. c #7E540C",
"&. c #5B4A26",
"*. c #4E4B29",
"=. c #684725",
"-. c #734D22",
";. c #794C23",
":. c #6A5529",
">. c #745222",
",. c #7C5522",
"<. c #765923",
"1. c #7D5A23",
"2. c #7D542B",
"3. c #77572A",
"4. c #6C4C30",
"5. c #6C4734",
"6. c #6B5532",
"7. c #755636",
"8. c #7F6122",
"9. c #4D4C4C",
"0. c #564D4D",
"q. c #5A4F4D",
"w. c #555545",
"e. c #4B4D53",
"r. c #554D52",
"t. c #4D565B",
"y. c #4E5A56",
"u. c #525255",
"i. c #5C5453",
"p. c #54545B",
"a. c #57595A",
"s. c #685747",
"d. c #674B55",
"f. c #645558",
"g. c #7B5D41",
"h. c #736342",
"j. c #5A5A61",
"k. c #655862",
"l. c #79786D",
"z. c #7B7A7A",
"x. c #810002",
"c. c #890000",
"v. c #9B1A18",
"b. c #93110F",
"n. c #A8140E",
"m. c #A31915",
"M. c #B21212",
"N. c #B81D1B",
"B. c #B70813",
"V. c #921F23",
"C. c #AC1826",
"Z. c #882426",
"A. c #972527",
"S. c #C70904",
"D. c #C80E11",
"F. c #864D1E",
"G. c #844916",
"H. c #835B14",
"J. c #82541A",
"K. c #8B561B",
"L. c #845B1C",
"P. c #875717",
"I. c #8B621C",
"U. c #894E27",
"Y. c #845424",
"T. c #845A22",
"R. c #8B5D23",
"E. c #83562B",
"W. c #83592D",
"Q. c #8B5425",
"!. c #915E2A",
"~. c #835433",
"^. c #8A5D34",
"/. c #8C5538",
"(. c #8C6325",
"). c #85662D",
"_. c #8C642C",
"`. c #806121",
"'. c #916428",
"]. c #8A6631",
"[. c #936835",
"{. c #9F793A",
"}. c #A66E36",
"|. c #8E6140",
" X c #987258",
".X c #967847",
"XX c #A4794D",
"oX c #827C77",
"OX c #7E8175",
"+X c #998852",
"@X c #B1884C",
"#X c #828278",
"$X c #98866C",
"%X c #A68B6C",
"&X c #B89866",
"*X c #BA9C7A",
"=X c #B8876C",
"-X c #D6B274",
";X c #7E7E82",
":X c #777F83",
">X c #7D8486",
",X c #858485",
"<X c #8F9B8F",
"1X c #B99D9C",
"2X c #9DA39C",
"3X c #A5A79D",
"4X c #BFB089",
"5X c #9E9FA4",
"6X c #A79BA3",
"7X c #9EA6A3",
"8X c #9CA2AE",
"9X c #A3A4A3",
"0X c #A5A9A4",
"qX c #AAA4AD",
"wX c #AAAAAA",
"eX c #A8A8A9",
"rX c #ABA7B2",
"tX c #B4AAB3",
"yX c #AFADA5",
"uX c #E48B91",
"iX c #FFB2B8",
"pX c #D3B599",
"aX c #DAC493",
"sX c #C8C6BD",
"dX c #D2C8B9",
"fX c #D3BFC8",
"gX c #E8BECC",
"hX c #C8C8C6",
"jX c #D4CBC5",
"kX c #C8CBD0",
"lX c #F1CDCE",
"zX c #F0EEDF",
"xX c #FBEBE9",
"cX c #F7F2E8",
"vX c #EEF2EE",
/* pixels */
"H.P.P.R.!.Y.[.T.@.R.J. .,._.J.(.Q Q _ | Y.' #.v ~ { S V Q Q ) ) ",
"L.H.o.J.J.{ (.J.@.'.{ T.@.@.T.T.' ~ >./ ~ ' $.^ Y  .] R T P I ) ",
"I.L.O.o.H.%.I.P.J.L.o.R.K.Y.3.$ 7 7 # :.3.+.X.X.| E.' Y.[ +.( -.",
"O.O.O.H.I.H.I.P.{ (.$._. .] $ y m.v.# &./ ` <.T _ ,.' @.Z Z b ! ",
"$.O.P.K.(.L.L.#.`.).$.)._ & i n.D.M.& &.-.! +.^ _ >.` +.^ Y Z ! ",
"8.L.K.K.!.T.#.$.$.).].# & y n.D.B.C.$ 6.-.[ 1.X.^ ! P ` | [ ^ Z ",
"H.J.F.F.Q.@.+.+.,.Y.& y i m.M.M.C.Z.+ 6.>.! [ $.^ | | +.R R R R ",
"O.o.Q.U.!.T.+.1.Y.& 0 y i p x.a 7 $ O 2 =.-.<.^ |  .' ' R ] { W ",
"#.Y P.G.'.#.8.+.$ r 0 0 # + # + + O . 4 > N -.! ' | | ,.V S { R ",
"+.1.K.P.(.1.].^.& 0 0 $ . ;XqXqXhXcXdX. . > h -.-.W.-.W.Z v +.[ ",
"3.<.[.L.T.W.~.& 0 e + 0.;X,Xz.,XtX9XsXjXdX. m : h f ! _ ( _ I I ",
"3.>. .E.[.~.# q e + q.>X:X:Xz.  X X o     jX. m , w d b ( ( / I ",
";.W.k - - = # < . r.j.t.y.y.    wXkXhXvXvXX   4 g f w q w k F _ ",
"2.b q K K 5.O . u.p.p.e.    #XOX9X7X7X  5XhXkX. =.(  .' D G Z ~ ",
"; d d w h J m O q.a.p.X a.,X,X2X0X  wX  tX  9Xo =.2.' _.Q.' Z f ",
"j N j / 7.7.s.. f.0.p.X e.;XqX  0X  3X  6X. 0X  g.E.| W.E.W.W.W.",
"B j f K B 2 m . i.p.p.X t.:XqXX qX  3X  1X. wX  m w h F k w h 2 ",
"; d #  X4.> 1 . 0.p.j.X a.>X6XX qX  2X  qX. wX  1 : ;  X~.: , % ",
"g =.= , h 2 2 . i.j.u.  w.l.0X  9XX 3Xo rXX 9X. d w k k r l g , ",
"N 7.$ g d 2 I . 0.r.i.  w.#X,Xz.>XX wXX 8X@ 3XO =.D } D G D F l ",
"|.=Xr ~.2.>.&.. f.r.f.f.. i.9.p.t.t.u.p.p.u.w.O ~ { ] Y. .@.1.v ",
"-.XX7 l A ! 4.O + $ $ $ # + + O O # # + O . O .X@XV S V v v v v ",
"-..Xq } G ..+ e s p M.n.Z.* s Z.A.b.v.A.8 e O &X-XE J.J.Q.} ;.Z ",
").&X, -.Q.[.# r p M.S.S.v.8 u i p x.c.p 8 & pX4XaX` b b b F D k ",
"^ ).w ~ C  .# s x.D.S.S.A.* $ e + # & * A.* O           o . 4.l ",
"T.XX: | ,.[ $ 0 x.M.B.N.u # $X  #XoX+ t Z.uX1X9XeX2XwXwX<XyXO N ",
"G U.q H k V H & y i A.i $ d.#X  OXoX+ 0 Z.iXjXhXhXhXhXsXhXhXdXO ",
"F.U.G ;.F.!.^.~.$ 0 0 & gXfXhX  hXjX+ e G lXxXxXxXxXcXzXzXcX. &.",
"G.K.G.}.}.@XR.&X*X+ O d.d.f.z.a.p.p.l.+ H $ O O . O O O O . 4.2.",
"E { E (.(.{.#..X+X$X  i.k.i.    o 9.i.. # =X%X%X*X%X6.7.s.h.3.,.",
"x x x x n x z P z I *.. 9.  *.5 6 o w.  j ( -.Z T P x c 5 5 z 2 ",
"3 3 z c c M c z P 3 M   o 6 3 U 5     5 I ! v C v T P z *.3 L L "
};
