/* XPM */
static char *fd5542059b924fd4d1e2294437e09ba5WMODkowAGBQaTq9h[] = {
/* columns rows colors chars-per-pixel */
"32 32 222 2 ",
"   c #1E3605",
".  c #1E3710",
"X  c #222B0C",
"o  c #243A00",
"O  c #24350D",
"+  c #243909",
"@  c #2A3B0B",
"#  c #25330B",
"$  c #2B351A",
"%  c #283815",
"&  c #2A2B1B",
"*  c #3A3E32",
"=  c #413D2D",
"-  c #443D34",
";  c #443C3B",
":  c #493A3D",
">  c #34431B",
",  c #3B4D1C",
"<  c #374B19",
"1  c #375217",
"2  c #3C4B23",
"3  c #39422B",
"4  c #3D4B2D",
"5  c #374626",
"6  c #3C4433",
"7  c #3E4839",
"8  c #404B1A",
"9  c #436B1A",
"0  c #476B1A",
"q  c #4A711B",
"w  c #4C771A",
"e  c #527B1F",
"r  c #667B1C",
"t  c #424A2D",
"y  c #424333",
"u  c #424A34",
"i  c #43433C",
"p  c #4B443B",
"a  c #51463C",
"s  c #4C513A",
"d  c #455E27",
"f  c #4D6C22",
"g  c #4C6B2C",
"h  c #4A662B",
"j  c #506D27",
"k  c #4C7429",
"l  c #4A7322",
"z  c #517323",
"x  c #527A29",
"c  c #547826",
"v  c #4D6932",
"b  c #4C6637",
"n  c #546C34",
"m  c #586B3E",
"M  c #546835",
"N  c #567536",
"B  c #3E3F43",
"V  c #424345",
"C  c #4C4443",
"Z  c #494547",
"A  c #524E4D",
"S  c #584C47",
"D  c #535044",
"F  c #5B5045",
"G  c #56534D",
"H  c #5C524D",
"J  c #5A584C",
"K  c #564E53",
"L  c #5B4D53",
"P  c #555353",
"I  c #5C5353",
"U  c #57535B",
"Y  c #5C5459",
"T  c #5A5B57",
"R  c #60524A",
"E  c #615555",
"W  c #645B54",
"Q  c #60565B",
"!  c #64595B",
"~  c #59664B",
"^  c #5A7446",
"/  c #6B7155",
"(  c #717F5C",
")  c #605661",
"_  c #766F6B",
"`  c #7B6F6E",
"'  c #776C63",
"]  c #777964",
"[  c #75726B",
"{  c #7C766C",
"}  c #787167",
"|  c #7A6E73",
" . c #776A74",
".. c #757772",
"X. c #7C7373",
"o. c #7F7A75",
"O. c #7B737A",
"+. c #686D66",
"@. c #806F65",
"#. c #817574",
"$. c #867875",
"%. c #698315",
"&. c #7BAA1F",
"*. c #5F9C23",
"=. c #738724",
"-. c #699B2A",
";. c #7C9B2D",
":. c #77982D",
">. c #708C35",
",. c #6D983F",
"<. c #779C36",
"1. c #6F8928",
"2. c #6CA127",
"3. c #66A62C",
"4. c #6DA42C",
"5. c #67AA2E",
"6. c #6BAC2B",
"7. c #67A926",
"8. c #72A52D",
"9. c #74AB2D",
"0. c #7BAF2C",
"q. c #78A926",
"w. c #6CB22B",
"e. c #6DA533",
"r. c #67AA32",
"t. c #6DAB34",
"y. c #6DA53B",
"u. c #6DAD3C",
"i. c #65A439",
"p. c #74A534",
"a. c #7CA434",
"s. c #73AC34",
"d. c #7AAA34",
"f. c #73A43A",
"g. c #7CA43A",
"h. c #73AB3A",
"j. c #7BAC3B",
"k. c #6FB432",
"l. c #66B036",
"z. c #74B435",
"x. c #76B43A",
"c. c #7CB43C",
"v. c #7EB234",
"b. c #779744",
"n. c #749C42",
"m. c #7A9B47",
"M. c #77994E",
"N. c #7C9C4B",
"B. c #7E9E53",
"V. c #7D9E59",
"C. c #75A245",
"Z. c #7CA444",
"A. c #72AB42",
"S. c #7BAB43",
"D. c #75A04D",
"F. c #7CA24B",
"G. c #77AC49",
"H. c #7DAB4B",
"J. c #79B247",
"K. c #78B245",
"L. c #7AA353",
"P. c #6DA743",
"I. c #7D9B65",
"U. c #829E2E",
"Y. c #849A2F",
"T. c #829C35",
"R. c #899D35",
"E. c #86A73A",
"W. c #91A23C",
"Q. c #81B23E",
"!. c #849F58",
"~. c #87A84B",
"^. c #86B449",
"/. c #84A25C",
"(. c #83A453",
"). c #93AD52",
"_. c #8CBC59",
"`. c #978A7F",
"'. c #95947F",
"]. c #96997D",
"[. c #9A947E",
"{. c #85966C",
"}. c #91A862",
"|. c #9DD359",
" X c #B8C968",
".X c #A5D763",
"XX c #AFD77C",
"oX c #8F8785",
"OX c #948E85",
"+X c #9D8E85",
"@X c #958C8B",
"#X c #9C8D8C",
"$X c #8C9880",
"%X c #959284",
"&X c #9C9286",
"*X c #9C938C",
"=X c #9D998E",
"-X c #999A83",
";X c #9D8D92",
":X c #9F8D99",
">X c #9D9493",
",X c #9B9198",
"<X c #9B9697",
"1X c #A08F85",
"2X c #A18E8B",
"3X c #A29385",
"4X c #A2938C",
"5X c #A3998B",
"6X c #A09883",
"7X c #A18C91",
"8X c #A18B98",
"9X c #A39492",
"0X c #AA9496",
"qX c #A39A94",
"wX c #AB9C93",
"eX c #A2949A",
"rX c #A29B98",
"tX c #A99A9A",
"yX c #9EA18D",
"uX c #97A085",
"iX c #9E99A0",
"pX c #AA97A3",
/* pixels */
"j.p.j.e.h.j.j.8.s.e.h.E.&.&.u.l.l.l.7.w.5.h.A.f.p.d.d.q.9.t.t.t.",
"8.h.e.p.j.<.a.Q.p.j.Q.8.0.&.r.P.u.u.k.k.x.h.h.f.j.s.9.6.s.t.x.h.",
"6.x.3.x.g.T.R.T.1.T.;.a.q.7.J.P.h.j.h.-.x.4.9.s.s.h.t.s.h.h.u.y.",
"w.6.t.s.g.T.W.=. X1.-.Q.j.S.n.L.F.N.m.(.<.g.8.8.t.e.u.h.u.e.y.f.",
"6.t.z.E.a.Y.R.Y.r ~.a.p.F.M., 5 t t t > , /.Z.S.y.u.u.u.5.s.s.s.",
"f.j.E.;.E.E.U.W.).>.).Z.V.< ].5X&X&X>XrX-X< /.n.A.u.r.r.k.s.8.9.",
"g.g.E.=.Y.;.d.p.m.m.m.}.> -X2X2X9X#X>X9X@XyX, /.C.x.t.w.x.6.2.v.",
"E.<.=. X%.E.Z.L.1 < 8 8 = 5X2X0X4X4X2X9X9X%X]., N.S.e.e.x.e.v.|.",
"j.;.R.;.;.<.!., M.] %X&XH *XwX+X4X&X5X3X4X4X&X].1 N.C.f.S.e.h.h.",
"d.d.T.;.T.~.O %XoX,X0XeXI 9X`.5X4X&X3X3X4X0X2X&X].@ /.n.J.h.h.f.",
"p.;.Z.g.~.(.X o.7X7X8X:XL @XtX&X>X,X9X#X2X4X7XtX*X%X@ N.Z.h.h.s.",
"p.^.p.Z.m.o [ ; 0X7XpX .Z qX&X*X,X<XrX#X4X4X2X9XeX<X%X> m.p.s.7.",
"g.p.f.,./.+ yXX.E ;X#XQ >X#X@X0X*X9X&X&X6X6X3X+X;XeXD % (.H.s.7.",
"f.e.h.~.  uX@X| L X.o.S 9X9X9X#X9X4X&X5X&X'.5XqXeXL { / o n.i.z.",
"r.x.t.n.@ =X;XpXX.; - 5X1X1X9X9X9X2X5X=X%X%XqX@X: #.,XyXO L.J.r.",
"k.7.s.F.$ ;XeX8X<XA { &X2X4X5X#X4X4X4X*X*XrX@XY tX2X*X*X$ I.C.u.",
"w.z.d.b.# rX;X:XqXS P Y | 7X4X4X4X2X0X2X#XrXI | 0X&X1X3X& {.C.j.",
"5.h.<./.$ <X,X9X&XJ [ O.Z eX4X1X4XwX2X7XtX:  .Y +XwX1X5X=X# XX2.",
"t.G.V.# } @X7X0X' a >X@XO.L ` 5X&X@XeX;XqXP O. .p 5X+X&X... Z.Q.",
"A.M.. ~ K $.4X2Xa } *X>X;X9Xa F qX*X>XeX; ..<XiX;XC *X>X..% XX4.",
"Z.M.% T ! C $.@.H *X9XrX9X9X`.6X= { _ E *X*X<X,X>X_ L o.+.. L.x.",
"g.F.> Z H W F R ` #X<XoX<X*X&X6X[ W H } { H A Q | Q H H T . C.3.",
"9.Z.  7 J H S E Y ) I Y <X#XqX*X>X@XI H W F E L Y L E I J O F.j.",
"a.S.g 4 3 y p G U U U U I I H I Y P E H F H I I Y L I H 6 O H.f.",
"p.p.c h 2 6 * u V V B V G G Y U U K C - p = i i ; C - - 4 M n.j.",
"h.f.C.9 N b ~ 5 3 u 7 6 u u i * 7 6 = - t 5 u 6 3 * s 5 m g H.p.",
"A.A.3.h.l k g N g v M m M , 5 4 5 ^ M M n M v v b ^ d j x ,.h.6.",
"i.u.x.d.S.C.,.q q e z 0 j g n n g N 0 z z q x l k 9 l w ~.-.z.6.",
"u.t.6.2.e.e.^..Xs.p.p.j.f.e q q w _.^.Z.g.p.y.y.y.J.p.h.s.0.7.w.",
"t.x.s.x.c.6.3.h.6.0.d.4.j.y.S.f.u.x.p.d.p.8.x.s.3.x.d.4.0.9.6.6.",
"t.s.3.y.h.h.h.t.s.t.t.s.G.y.h.h.4.Q.d.8.d.s.s.6.x.*.Q.d..X8.v.h.",
"6.s.S.y.e.e.K.e.e.z.s.i.A.P.u.s.s.8.a.8.j.4.t.t.u.z.8.8.9.j.y.h."
};
