/* XPM */
static char *_ef098d971064d99c6f4f28859edf066JNgRPtMNG0UyioK3[] = {
/* columns rows colors chars-per-pixel */
"32 32 211 2 ",
"   c #000000",
".  c #0B0407",
"X  c #000A00",
"o  c #02010C",
"O  c #130301",
"+  c #021405",
"@  c #171402",
"#  c #040114",
"$  c #040119",
"%  c #0A1813",
"&  c #290D03",
"*  c #002901",
"=  c #053601",
"-  c #043A1A",
";  c #282404",
":  c #39331C",
">  c #080323",
",  c #0A042C",
"<  c #120C27",
"1  c #0B0333",
"2  c #0D043C",
"3  c #1D1335",
"4  c #3C0435",
"5  c #0D252D",
"6  c #0C3638",
"7  c #460202",
"8  c #5C0E03",
"9  c #68080E",
"0  c #443B05",
"q  c #5A3309",
"w  c #723316",
"e  c #670F2D",
"r  c #015D02",
"t  c #275908",
"y  c #027E11",
"u  c #22690A",
"i  c #0D5430",
"p  c #0E7538",
"a  c #544602",
"s  c #796D14",
"d  c #525829",
"f  c #715C36",
"g  c #0E0444",
"h  c #110449",
"j  c #120556",
"k  c #12045C",
"l  c #291D48",
"z  c #183D48",
"x  c #140568",
"c  c #1A067D",
"v  c #230E7F",
"b  c #183275",
"n  c #36296E",
"m  c #503B51",
"M  c #722D4E",
"N  c #630674",
"B  c #4E3762",
"V  c #682468",
"C  c #105758",
"Z  c #27734D",
"A  c #18497D",
"S  c #185278",
"D  c #1A7270",
"F  c #554F5E",
"G  c #624B4D",
"H  c #7C634C",
"J  c #5D4278",
"K  c #455574",
"L  c #6D5368",
"P  c #8A0706",
"I  c #994D02",
"U  c #B1520A",
"Y  c #8A713C",
"T  c #A5602B",
"R  c #9B0459",
"E  c #87167A",
"W  c #9A3578",
"Q  c #8F7353",
"!  c #A24B7E",
"~  c #846A6E",
"^  c #A3606C",
"/  c #018605",
"(  c #049606",
")  c #2E9801",
"_  c #2FAD0B",
"`  c #078325",
"'  c #25803D",
"]  c #0EB030",
"[  c #73A332",
"{  c #05C903",
"}  c #02D906",
"|  c #2DCD06",
" . c #08C622",
".. c #6DCE11",
"X. c #138F52",
"o. c #3A8859",
"O. c #178368",
"+. c #6A9C5B",
"@. c #A7960A",
"#. c #B39B08",
"$. c #A7901A",
"%. c #8E8E32",
"&. c #A98C2C",
"*. c #B89921",
"=. c #A4873E",
"-. c #BD9935",
";. c #B1B131",
":. c #CAB204",
">. c #D5BC02",
",. c #D7B818",
"<. c #E8BA08",
"1. c #E3B117",
"2. c #C69B2C",
"3. c #D28B35",
"4. c #D0AC2B",
"5. c #CEB02D",
"6. c #C4A737",
"7. c #E0B822",
"8. c #AFD90F",
"9. c #BAD807",
"0. c #CAC517",
"q. c #DAC917",
"w. c #E4C508",
"e. c #F1C005",
"r. c #D9C721",
"t. c #908753",
"y. c #AA8A49",
"u. c #B09244",
"i. c #B89858",
"p. c #95B140",
"a. c #AD8973",
"s. c #C5964D",
"d. c #CAA940",
"f. c #1B0684",
"g. c #1C088B",
"h. c #1B148A",
"j. c #1E0796",
"k. c #1F069A",
"l. c #1B1897",
"z. c #2E0789",
"x. c #271589",
"c. c #220A9A",
"v. c #1A3489",
"b. c #202A96",
"n. c #1E05A2",
"m. c #2007A2",
"M. c #2107AC",
"N. c #2208AA",
"B. c #3418A7",
"V. c #2209B2",
"C. c #2407B9",
"Z. c #240ABB",
"A. c #2116B5",
"S. c #1C35A9",
"D. c #2128AB",
"F. c #3939A5",
"G. c #2233B7",
"H. c #3631B4",
"J. c #4E1283",
"K. c #6E0A82",
"L. c #5907A8",
"P. c #561CAE",
"I. c #410BB8",
"U. c #6616B0",
"Y. c #5134AB",
"T. c #1A4D95",
"R. c #2A568F",
"E. c #36499A",
"W. c #1C7599",
"Q. c #1D54B9",
"!. c #265BA9",
"~. c #2B4BBC",
"^. c #1D6CA5",
"/. c #1B6DB0",
"(. c #2371AC",
"). c #6D4E89",
"_. c #507C82",
"`. c #7547B2",
"'. c #1B0ADB",
"]. c #2508C4",
"[. c #2607C9",
"{. c #2807CC",
"}. c #250ACC",
"|. c #2B0FCA",
" X c #2A07D6",
".X c #2708D4",
"XX c #2B0BD5",
"oX c #250BDB",
"OX c #290ADA",
"+X c #370BDA",
"@X c #262BC6",
"#X c #213FC6",
"$X c #2524D2",
"%X c #2B09E5",
"&X c #340BE1",
"*X c #330AE9",
"=X c #2921E2",
"-X c #3432F1",
";X c #5B08C9",
":X c #4B10D0",
">X c #4928C9",
",X c #512AE3",
"<X c #1E44C5",
"1X c #810791",
"2X c #8C5980",
"3X c #95718E",
"4X c #8865A6",
"5X c #188B91",
"6X c #248F94",
"7X c #1A8AA8",
"8X c #AA8489",
/* pixels */
"                                                                ",
"                            # $ $ o                             ",
"                      , c.V.].[.}.].V.m.#                       ",
"                  k m.{.oXXX!.5XW.^.W.(.@XM.j                   ",
"              # m.].OXXXE.X.6 6 p p Z n F.Q.Q.g.o               ",
"            2 M.}.OX{.A y   r *   X ; t _ K H.Q.A.o             ",
"          2 M.].+X.Xf.(     X ; #.>.>.e.w.:...F.7XA.            ",
"          k.C.:X-XG.] { / + a & & P 9 O + a :.9.~ (.N.          ",
"        v N.I.@X=XD.( r _ { ) s 0 .   . 7 7 8 s 9.t.!.x .       ",
"      , m.B.E.B.{.[.+   @ 0 Y L V L f ;   o & e H 8.+.G.        ",
"      f.n.R.b h , $ . < $.&.o 1 # % B.~ m 1 , h R %.0._.f.      ",
"    o m.v.F c j o O @ >XN.o           ] `.Y.g.f.c.1X8.p.k.      ",
"    o c.O.K.n.c e : @.h.              o 3 ! ].].Z.I.[ r.E.o     ",
"    h.c.R.L.oX].G 0 f $                 + M Y.oX.XoXo.r.+.o     ",
"    k.l.E.;X*XE x.#.l                     d 3XoX%XoXO.6.p.k     ",
"    j.S.@X;X+X).V.,.o                     > u.].oX&XX.3.;.j.    ",
"    c.T.=X:X*X5.[.=.X                     < *.k.].{.] 3.;.c.    ",
"    k.D.$X*X+X5. Xi.z                     q #.k m.D O.3.;.h     ",
"    x V.#X*X>X4.C.2Xd 5                 2 I @ > n  .b.1.t.o     ",
"    o M.<X%X,X5.f.N a.' o             > m U X = { C J.q.J       ",
"    o c.^.%X&Xi., 1 V 6.X..   X     o B.T ( } } - k Q q.c       ",
"      c A.<X+X4XV . O w 6.Q h.h.T.S.~.L i t = X . i 0.Y 1       ",
"      o N.Q.+X`.3XJ.4 $ e M W P.U.:XU.h.#   X * / ..,.n         ",
"        k A.Q.U.8X>XC.z.z.j.V.[.=XoXG.O. .{ { } | <.H 2         ",
"          g.|./.^ 8X>X'.oX}.OX'.OXC.v.h.T.X.` u <.&.k           ",
"          o j.].6X-.s.`.XXoX.X].V.v.x ].oXM.G e.*.z.o           ",
"            o j.].Y.2.7.y.).h.S S c.].XX).2.<.Y c o             ",
"              o h N.|.~ 5.w.q.-.y.y.d.,.1.&.B g                 ",
"                  > x N.B.).Q -.2.2.=.H n x                     ",
"                        > g.g.f.f.f.f.$                         ",
"                                                                ",
"                                                                "
};
