/* XPM */
static char *_5168821057f42f98664c04b98e0f6188F4ykR0HYXHqpdOg[] = {
/* columns rows colors chars-per-pixel */
"38 38 231 2 ",
"   c None",
".  c #130B0B",
"X  c #0C1118",
"o  c #1B1718",
"O  c #16100E",
"+  c #240E06",
"@  c #2A170A",
"#  c #381908",
"$  c #2C1B13",
"%  c #281B1A",
"&  c #381C18",
"*  c #36230D",
"=  c #2C2418",
"-  c #3A2513",
";  c #3D2D13",
":  c #362619",
">  c #322817",
",  c #0A0B29",
"<  c #0B122C",
"1  c #141524",
"2  c #161827",
"3  c #0D1436",
"4  c #181735",
"5  c #100F36",
"6  c #221C2B",
"7  c #281E32",
"8  c #1D203D",
"9  c #2A2528",
"0  c #37292B",
"q  c #3A342C",
"w  c #282736",
"e  c #411C09",
"r  c #46260C",
"t  c #47370F",
"y  c #412513",
"u  c #432D15",
"i  c #492A17",
"p  c #542D14",
"a  c #4A341D",
"s  c #483517",
"d  c #593516",
"f  c #58300F",
"g  c #693916",
"h  c #6E3915",
"j  c #463626",
"k  c #573A26",
"l  c #433839",
"z  c #4E352E",
"x  c #653E21",
"c  c #4D4113",
"v  c #56441B",
"b  c #5D511D",
"n  c #62461A",
"m  c #7C431B",
"M  c #78481B",
"N  c #6A561B",
"B  c #5A4828",
"V  c #5D4B3D",
"C  c #564B31",
"Z  c #6A482A",
"A  c #7B4C28",
"S  c #6B5427",
"D  c #7C5125",
"F  c #6B443B",
"G  c #754839",
"H  c #77642F",
"J  c #0E1B56",
"K  c #121951",
"L  c #12164A",
"P  c #192355",
"I  c #242556",
"U  c #323356",
"Y  c #2D2E52",
"T  c #182576",
"R  c #1E2A6C",
"E  c #27327C",
"W  c #353A76",
"Q  c #303266",
"!  c #413C5F",
"~  c #4B4644",
"^  c #594444",
"/  c #474658",
"(  c #56565C",
")  c #684843",
"_  c #734642",
"`  c #745F47",
"'  c #6D5650",
"]  c #776D56",
"[  c #72664C",
"{  c #484969",
"}  c #4B5768",
"|  c #585B61",
" . c #4A5478",
".. c #5A5E79",
"X. c #504872",
"o. c #635B63",
"O. c #665873",
"+. c #5C6079",
"@. c #61627A",
"#. c #726D6C",
"$. c #894A1B",
"%. c #86551D",
"&. c #864D22",
"*. c #865428",
"=. c #9B5B2C",
"-. c #975926",
";. c #84543A",
":. c #965E37",
">. c #A85B22",
",. c #836D26",
"<. c #9B622D",
"1. c #88772C",
"2. c #9F6C38",
"3. c #937134",
"4. c #A86729",
"5. c #B46D2B",
"6. c #B76629",
"7. c #B8742C",
"8. c #A86A35",
"9. c #AA7838",
"0. c #B87535",
"q. c #C6762E",
"w. c #C57930",
"e. c #D37D31",
"r. c #815644",
"t. c #87654B",
"y. c #9A6944",
"u. c #987D57",
"i. c #8E704F",
"p. c #A57B4B",
"a. c #B17B4A",
"s. c #877665",
"d. c #957A64",
"f. c #887C75",
"g. c #A67D61",
"h. c #999433",
"j. c #918536",
"k. c #BC8236",
"l. c #B59639",
"z. c #A99735",
"x. c #AAA63A",
"c. c #BBB03C",
"v. c #C6812F",
"b. c #CB8634",
"n. c #D38533",
"m. c #D58B35",
"M. c #D88C38",
"N. c #D4943B",
"B. c #DA973C",
"V. c #CA903F",
"C. c #E29739",
"Z. c #CFB33E",
"A. c #988658",
"S. c #949259",
"D. c #B9894B",
"F. c #A98758",
"G. c #B48D55",
"H. c #B1AB52",
"J. c #988367",
"K. c #8B8475",
"L. c #B79967",
"P. c #A79778",
"I. c #A9946B",
"U. c #9CA470",
"Y. c #BEA063",
"T. c #D69341",
"R. c #C89252",
"E. c #CA8D44",
"W. c #C9BC4F",
"Q. c #C9B549",
"!. c #C49D6B",
"~. c #D4B776",
"^. c #CEB275",
"/. c #D8C648",
"(. c #DADA4B",
"). c #DCD352",
"_. c #D1CB52",
"`. c #E3CD4A",
"'. c #E7D54C",
"]. c #E1D855",
"[. c #DBE24E",
"{. c #EAEA51",
"}. c #EAE34F",
"|. c #192B85",
" X c #323C85",
".X c #263698",
"XX c #283389",
"oX c #1E33A4",
"OX c #263DAE",
"+X c #263CB3",
"@X c #374485",
"#X c #334898",
"$X c #3A4DAC",
"%X c #3A4EB3",
"&X c #475593",
"*X c #51568B",
"=X c #5E6399",
"-X c #536489",
";X c #666B89",
":X c #6C728A",
">X c #747686",
",X c #6B779B",
"<X c #5A6BAD",
"1X c #5E6AA7",
"2X c #2E43C5",
"3X c #827F8F",
"4X c #7F8583",
"5X c #788AB2",
"6X c #958986",
"7X c #959487",
"8X c #898B9A",
"9X c #8C8D92",
"0X c #AA9B89",
"qX c #B9A78E",
"wX c #B3AB93",
"eX c #818BA7",
"rX c #9096A4",
"tX c #A8A5A2",
"yX c #BBB6A3",
"uX c #98A48F",
"iX c #CFB782",
"pX c #C4BBAA",
"aX c #DDC997",
"sX c #DFD49C",
"dX c #E0C28F",
"fX c #CDC6B3",
"gX c #E8DCB4",
"hX c #EEE3B8",
"jX c #A9B9CC",
"kX c #BBCADA",
"lX c #C0CEDD",
/* pixels */
"                  v v                                                       ",
"            t v c H h.1.N s t d d                                           ",
"          c H x.h.x././.c.1.,.3.1.N N S                                     ",
"    ; ; * c h.[.[.[.(.'.Q.Z.Z.'.Z.z.z.j.N                                   ",
"  ; b j.h.h.c.{.{.{.{.'.`.Z.'.}.}.'.Q.Z.,.                                  ",
"    c j.W._._.(.]._.H.H.H.H.W.].)./.Q.l.H                                   ",
"    ; b A.S.S.S.S.s.|  .X.} #.U.S.] [ Z p *                                 ",
"    : q C | #.9X8XrXeX,X<X#X X*X .Q Y % *                                   ",
"      q q } eXjXkXlXkXjXeX&X X@X .! 2 O                                     ",
"        > 9 / :XeX8X4X;X;X@.#.t.s.[ = o                                     ",
"          = 2 } rXtX4X-X9XiX!.R.F.[ C ' o./                                 ",
"          = q K.lXgXfXtXpXaX~.D.9.i.K.U.9X@.Y 4 $                           ",
"          ; B J.aXhXhXgXsX~.Y.p.A.P.yXuX>X*X! j i s                         ",
"            q S G.~.iX~.Y.G.u.I.wXpXtXK...( ' ;.A g t *                     ",
"              a x i.a.a.2.u.P.wXyX0XK.] i.u.a.0.4.%.f * -                   ",
"                ^ s.u.y.y.d.7X7XK.A.F.D.N.M.M.n.w.4.$.M g p                 ",
"                  ' #.t.y.d.f.s.u.D.T.N.e.e.e.e.w.5.6.7.8.D p s             ",
"                  ! ! ) t.g.a.a.V.V.m.n.e.q.q.6.7.w.w.m.N.k.M - :           ",
"                  z : - x &.-.6.q.q.q.q.6.>.m $.4.5.w.m.N.N.9.n ;           ",
"                  a x D D g h $.>.6.6.6.>.$.e e e h =.7.k.7.9.S u j         ",
"                @ # h =.4.&.&.>.6.6.6.6.>.=.h y + * d A <.9.2.n s           ",
"              a # y p x G _ ;.;.=.=.=.=.-.;.;.z % 0 j y n p.!.u.C j         ",
"          i i g *.-.:.;._ F ) x x _ _ _ x _ _ z : : j ; v F.dXaXA.;         ",
"        i f $.4.b.m.n.0.:.y.y.r._ _ _ _ r.r.r._ 0 % : ; C L.aXaXA.s         ",
"      p g $.5.m.C.C.m.5.-.M h &.m =.8.0.a.G.d.O.I 4 6 i k H I.I.B *         ",
"    y d $.q.n.M.m.v.7.D r + e f $.8.E.R.!.0X,X$XXXK 1 6     B C j           ",
"  a i h 4.q.q.q.7.>.M r + @ p D a.!.L.0X8X1X$X%XoXT L .                     ",
"  - d D >.5.-.m h f # + + # B F.iX0X6X>X>X;X*XX.X.Q 4 + $                   ",
"  : y d &.4.-.h d i # @ = $ l f.tXrXP.d.A.F.F.p.y.t.F j : -                 ",
"    # r M 4.=.*.v * @ @     9 / ;X6Xg.8.4.k.V.B.b.0.<.D - $                 ",
"      u y y - * + O $         w l ^ G &.-.7.b.7.4.k.D.F.^ 0                 ",
"      q 7 5 5 5 < X X o           u i p g D *.M d H L.0X>XQ J 4 8 o         ",
"    > 9 I W XXE E J , O                 i i y @ + k ` o.&XXX|.|.J L , X     ",
"  q ~ } ..=X=X=X&XR 3 %                     $ . . o 7 P |.OX+X+XoX|.J < 1   ",
"9 w { @... .{ { Y 4 4 9                         X , K T .X$X%X%X2X$X@XJ 2 w ",
"9 6 w 6 2 1 2 2 1 o o                             , L XX&X1X%XOX%X<X-XY 6 0 ",
"      9 = o o o                                     L I Q W W R R U w 9 9   ",
"                                                        , , < 2 2 2 o       "
};
