/* XPM */
static char *_097314f499a428c8760cec83f1e8a56jxUoJAK6iM2EA7nW[] = {
/* columns rows colors chars-per-pixel */
"30 30 127 2 ",
"   c #020102",
".  c #080407",
"X  c #070309",
"o  c #0B060B",
"O  c #0F080E",
"+  c #0E0811",
"@  c #130712",
"#  c #140A13",
"$  c #190B17",
"%  c #1B0D1A",
"&  c #1F101D",
"*  c #200E1F",
"=  c #20111F",
"-  c #230D22",
";  c #290F26",
":  c #241222",
">  c #281327",
",  c #2C142A",
"<  c #2E182C",
"1  c #31152E",
"2  c #31192F",
"3  c #351632",
"4  c #3A1736",
"5  c #341A32",
"6  c #391A36",
"7  c #3D163A",
"8  c #3D1A3A",
"9  c #3A2437",
"0  c #3E203A",
"q  c #411B3E",
"w  c #42203C",
"e  c #451C42",
"r  c #4A1C45",
"t  c #4E1D4A",
"y  c #521F4D",
"u  c #561E54",
"i  c #472140",
"p  c #4B2245",
"a  c #4E2249",
"s  c #54234D",
"d  c #59254C",
"f  c #592A4F",
"g  c #572351",
"h  c #5A2454",
"j  c #5C2A52",
"k  c #5F2458",
"l  c #5D3256",
"z  c #602753",
"x  c #612B56",
"c  c #62255C",
"v  c #642C5A",
"b  c #6A2E5E",
"n  c #6B315F",
"m  c #6C2965",
"M  c #6F2A68",
"N  c #782F6C",
"B  c #6F3161",
"V  c #6F3865",
"C  c #733364",
"Z  c #7B346D",
"A  c #7C3C71",
"S  c #823375",
"D  c #8B3A77",
"F  c #853478",
"G  c #89377B",
"H  c #923C7D",
"J  c #8C497C",
"K  c #8F3D82",
"L  c #963E83",
"P  c #9A3F88",
"I  c #924384",
"U  c #9A4183",
"Y  c #964088",
"T  c #994589",
"R  c #964B8C",
"E  c #9C4A8B",
"W  c #9C528D",
"Q  c #A3448D",
"!  c #A44B8E",
"~  c #A74591",
"^  c #A94695",
"/  c #AA4996",
"(  c #B94E9E",
")  c #A55292",
"_  c #A95094",
"`  c #AA5C9C",
"'  c #B4529D",
"]  c #B05E9D",
"[  c #B852A1",
"{  c #B95CA7",
"}  c #B362A2",
"|  c #B268A3",
" . c #BA6FAB",
".. c #BD75AD",
"X. c #BC79B0",
"o. c #C252A5",
"O. c #C954AB",
"+. c #D259B4",
"@. c #C26AB1",
"#. c #D562B9",
"$. c #D66DBD",
"%. c #C17DB3",
"&. c #CE73BC",
"*. c #D66EC0",
"=. c #DE6DC3",
"-. c #D775C4",
";. c #E167C2",
":. c #E46FC8",
">. c #C485BA",
",. c #C688BD",
"<. c #DF84CF",
"1. c #DD87D0",
"2. c #EB83D5",
"3. c #E28AD3",
"4. c #E38ED7",
"5. c #EB8BD9",
"6. c #EC8CDA",
"7. c #EC8EDC",
"8. c #EF8FDE",
"9. c #F185D8",
"0. c #F694E3",
"q. c #F999E8",
"w. c #FA9EEC",
"e. c #FAA6F0",
"r. c #FBA6F0",
"t. c #FFAEF9",
"y. c #FFAFFA",
/* pixels */
"} ! ) >.,.>.%./ ] ,.,.| Q X.>.>.%.%.Q  .,.X._ ..>.,...T ` J ",
"W C [ q.t.0.9.' T 7.r.} U 2.t.w.9.$.D -.r.<.{ 9.w.t.2.L A J ",
"e a ( *.4.2.;.L z I E b D =.8.6.:.o.d G R T P =.5.1.#.H q 1 ",
"' ` Z S Z / +.Z , t y # r O.~ Y +.~ 1 r h 4 N ^ K N F A @.Z ",
"` } q c m S Q 4 $ q l 9 * F S M Q z @ ; * @ r G M m y h &.n ",
"2 4 @ y m m y - X V 3.O.r 3 m m k q - X   o 1 k m m 1 @ q $ ",
"# O $ , r q $     5 J Z t @ r s * ; #       . : e 7 o     o ",
"@ : O     .         * > %   @ @                 X     X = : ",
"# : #   @ > % # # # X % O # = # # O .       O     # # # = $ ",
"O # # O 4 h p 5 5 : $ # # : 2 0 w > & * > : > % # 5 8 , $ o ",
"O 5 8 5 6 k n g g 7 % q h e 5 a B j u r : 2 k w & : t r #   ",
"O 7 8 6 6 a h s h r 8 d v s q w k r t s 6 r v a < : q 6 o   ",
"  . = 2 , p h x C B B p 5 w p a y 8 k B v l 6 5 < % q 8 %   ",
"  . # o . % 2 1 p j n j > 2 g B r : 6 j j n 2 : O . @ # o   ",
"  o % #     o # e s a r 5 6 j n 5 # 3 s a s 2 2 o       . X ",
". $ e 8 # O X , w 8 : < j v p e 3 : e q , > p g > # .     X ",
"+ - a t e e * 3 r 8 * & s C j m i : e q , # 8 h e r 7 @ X + ",
"$ . : > 8 t , : q < : , q a p m g > q 5 > : ; > < e r % X + ",
"#     . # % % + % & # > 5 8 5 q 5 $ $ % $ +     X & % # . + ",
".       : 6 > : > & % > e t 0 y e < < = $ X     O < 5 : X o ",
"  O > & = e t 6 e 7 : 8 h r 6 g B g g q & % 1 > % , a e # X ",
"  1 e 5 = 6 e , e 8 , g B a 8 i v a t r % , t 8 > & e 8 o + ",
"X @ : < > 8 8 p V x l a 0 e p r t e h n t 7 * > 5 : 8 8 % + ",
"    . # # % - , j v B f > 6 a v t , p k u r # # # + - - + @ ",
"    X .       o q j g s < 2 x C 8 # , g a r & + X         o ",
"  $ 7 3 . .   - r q , 5 a j a i 5 : e i 3 * ; 7 & X         ",
". % t t 6 8 % , e 8 - : j C j h 8 : q 8 , o > g q 7 ; o     ",
"  % , 8 e c i 3 r 6 - : e h g C g , t 8 > % > 6 8 t t % .   ",
"  .   . : e 3 # % - : , 5 9 6 r 8 $ & & & : # . + : > # + . ",
"        - e 5 : : & . & 8 e 8 e 6 > : = + + & o X : > % # . "
};
